<?xml version="1.0" encoding="UTF-8"?>
<svg version="1.1" xmlns="http://www.w3.org/2000/svg" width="1024" height="1024">
<path d="M0 0 C0.87914062 0.00451172 1.75828125 0.00902344 2.6640625 0.01367188 C4.81773803 0.02537663 6.97137817 0.04330931 9.125 0.0625 C9.125 0.7225 9.125 1.3825 9.125 2.0625 C10.8575 2.18625 10.8575 2.18625 12.625 2.3125 C17.34627498 2.87736683 21.0356739 4.72418853 25.125 7.0625 C25.455 6.0725 25.785 5.0825 26.125 4.0625 C26.20878906 4.66707031 26.29257812 5.27164062 26.37890625 5.89453125 C27.3555383 8.73238876 28.49756801 9.24890623 31.0625 10.75 C45.60584437 20.03838 54.55738169 32.85090552 60.125 49.0625 C60.36992187 49.75988281 60.61484375 50.45726562 60.8671875 51.17578125 C65.08568568 66.05610016 62.25157013 83.32278252 55.4375 96.875 C49.45532732 106.79945861 40.52726327 114.91790104 32.41186523 123.12573242 C31.33135654 124.22306479 30.2562757 125.32576438 29.1862793 126.43334961 C27.61909597 128.05492439 26.03641676 129.65975964 24.44921875 131.26171875 C23.97312668 131.76048019 23.49703461 132.25924164 23.0065155 132.77311707 C21.6394043 134.1315918 21.6394043 134.1315918 19.125 136.0625 C15.82000933 136.03068847 14.15518072 134.46885252 11.890625 132.19140625 C11.03017578 131.32999023 11.03017578 131.32999023 10.15234375 130.45117188 C9.56582031 129.84853516 8.97929687 129.24589844 8.375 128.625 C7.77300781 128.02623047 7.17101562 127.42746094 6.55078125 126.81054688 C2.125 122.32956881 2.125 122.32956881 2.125 120.0625 C1.50625 119.815 0.8875 119.5675 0.25 119.3125 C-2.27858627 117.82509631 -2.59339004 116.62571991 -3.875 114.0625 C-5.9085948 112.79445434 -5.9085948 112.79445434 -7.875 112.0625 C-7.875 111.0725 -7.875 110.0825 -7.875 109.0625 C-6.23895804 107.69176214 -4.56821939 106.36194744 -2.875 105.0625 C-2.318125 104.32 -1.76125 103.5775 -1.1875 102.8125 C-0.754375 102.235 -0.32125 101.6575 0.125 101.0625 C0.785 101.0625 1.445 101.0625 2.125 101.0625 C2.38667969 100.47339844 2.64835938 99.88429688 2.91796875 99.27734375 C4.1892275 96.94464566 5.52730531 95.45895632 7.4375 93.625 C8.05882812 93.02042969 8.68015625 92.41585937 9.3203125 91.79296875 C9.91585937 91.22191406 10.51140625 90.65085937 11.125 90.0625 C18.15147915 83.19942734 23.10270385 77.28716023 23.5625 67.1875 C23.29352594 59.89157876 20.88747328 53.58642434 15.9375 48.1875 C9.49871184 42.37889111 1.76357836 39.78297743 -6.875 40.0625 C-23.10564115 42.0122026 -36.51419066 61.64980771 -47.31982422 72.60327148 C-49.66725374 74.98069935 -52.02069987 77.35203491 -54.375 79.72265625 C-55.09888916 80.46000504 -55.82277832 81.19735382 -56.56860352 81.95704651 C-57.23690186 82.6287236 -57.9052002 83.3004007 -58.59375 83.99243164 C-59.18091797 84.58705704 -59.76808594 85.18168243 -60.37304688 85.79432678 C-61.875 87.0625 -61.875 87.0625 -63.875 87.0625 C-63.875 87.7225 -63.875 88.3825 -63.875 89.0625 C-65.24707031 90.42651367 -65.24707031 90.42651367 -67.203125 92.04296875 C-72.55930619 96.60516097 -77.60019691 101.4526718 -82.625 106.375 C-84.02298828 107.7043457 -84.02298828 107.7043457 -85.44921875 109.06054688 C-92.43441799 115.93049534 -96.72908027 122.18715032 -97.375 132.125 C-96.97492901 140.63317635 -92.81571304 147.19873921 -86.875 153.0625 C-85.23204805 154.42494796 -83.56675663 155.76114875 -81.875 157.0625 C-80.18683067 158.70738294 -78.52146685 160.37587542 -76.875 162.0625 C-76.05902344 162.84560547 -76.05902344 162.84560547 -75.2265625 163.64453125 C-73.73897682 165.07973715 -72.30304281 166.5680366 -70.875 168.0625 C-70.875 168.7225 -70.875 169.3825 -70.875 170.0625 C-70.32714844 170.28679687 -69.77929688 170.51109375 -69.21484375 170.7421875 C-60.88902257 175.44023017 -52.88518795 185.03193616 -49.875 194.0625 C-49.062798 200.69548301 -51.24498947 205.63639052 -54.875 211.0625 C-59.10054061 215.09789128 -63.93378044 216.45374915 -69.72106934 216.32815552 C-78.21429641 215.28064147 -84.0741887 208.47677392 -89.78125 202.7578125 C-90.70538696 201.84224579 -91.62952393 200.92667908 -92.58166504 199.98336792 C-94.5315082 198.04837865 -96.47351479 196.1059164 -98.41064453 194.15820312 C-100.37566124 192.18395148 -102.35152685 190.22178733 -104.33935547 188.27050781 C-121.07644683 171.83854021 -134.98424361 156.86050185 -135.375 132.0625 C-134.96987342 101.7369337 -113.24836187 83.12903057 -93.30310059 63.41156006 C-89.82890496 59.97591603 -86.36002691 56.53491722 -82.89442444 53.09060669 C-81.05753704 51.26594182 -79.21798268 49.44395694 -77.37547302 47.62496948 C-76.55023636 46.80626373 -75.72499969 45.98755798 -74.87475586 45.14404297 C-74.14848495 44.42602509 -73.42221405 43.7080072 -72.67393494 42.9682312 C-70.70478461 40.98893723 -70.70478461 40.98893723 -68.875 38.0625 C-67.88262957 37.15534697 -66.85803671 36.28282756 -65.8125 35.4375 C-61.86663062 32.15480194 -58.34267313 28.52275803 -54.79296875 24.8203125 C-52.875 23.0625 -52.875 23.0625 -50.875 23.0625 C-50.61460937 22.47082031 -50.35421875 21.87914062 -50.0859375 21.26953125 C-44.84785221 11.72269838 -31.86970769 5.80484211 -22 2.6875 C-14.54340297 0.53835549 -7.71444081 -0.07551787 0 0 Z " fill="#2885FE" transform="translate(269.875,343.9375)"/>
<path d="M0 0 C2.0728364 1.50532197 3.94645194 3.09367964 5.82421875 4.8359375 C6.50097656 5.45726562 7.17773438 6.07859375 7.875 6.71875 C11.34630868 10.04397155 11.34630868 10.04397155 12.82421875 11.8359375 C12.82421875 12.4959375 12.82421875 13.1559375 12.82421875 13.8359375 C13.48421875 13.8359375 14.14421875 13.8359375 14.82421875 13.8359375 C14.82421875 14.4959375 14.82421875 15.1559375 14.82421875 15.8359375 C15.38109375 16.0628125 15.93796875 16.2896875 16.51171875 16.5234375 C19.48581463 18.21143786 21.5443074 20.30270267 23.82421875 22.8359375 C23.82421875 23.4959375 23.82421875 24.1559375 23.82421875 24.8359375 C24.40171875 25.0834375 24.97921875 25.3309375 25.57421875 25.5859375 C28.15361854 27.01893738 29.88543467 28.62018426 31.82421875 30.8359375 C31.82421875 31.4959375 31.82421875 32.1559375 31.82421875 32.8359375 C32.38625 33.07054687 32.94828125 33.30515625 33.52734375 33.546875 C45.25128451 40.12663767 52.20098161 55.44952218 55.82421875 67.8359375 C59.20906031 84.0348221 56.52068817 100.66794817 48.1328125 114.94995117 C42.29064564 123.36986516 34.3239515 130.46592766 27.07421875 137.6484375 C26.15511719 138.56302734 25.23601562 139.47761719 24.2890625 140.41992188 C22.58613793 142.11422092 20.88217688 143.80747944 19.17675781 145.49926758 C18.40041992 146.27036865 17.62408203 147.04146973 16.82421875 147.8359375 C15.93959961 148.70822998 15.05498047 149.58052246 14.14355469 150.47924805 C11.80071317 152.76443103 11.80071317 152.76443103 9.94921875 155.2734375 C8.19195446 157.3924915 6.61152372 158.91808597 4.51171875 160.6484375 C1.01068992 163.53829535 -1.82502016 166.78946972 -4.6953125 170.296875 C-5.18386719 170.80476562 -5.67242187 171.31265625 -6.17578125 171.8359375 C-6.83578125 171.8359375 -7.49578125 171.8359375 -8.17578125 171.8359375 C-8.50578125 172.8259375 -8.83578125 173.8159375 -9.17578125 174.8359375 C-9.83578125 174.8359375 -10.49578125 174.8359375 -11.17578125 174.8359375 C-11.42328125 175.4134375 -11.67078125 175.9909375 -11.92578125 176.5859375 C-13.35878113 179.16533729 -14.96002801 180.89715342 -17.17578125 182.8359375 C-17.83578125 182.8359375 -18.49578125 182.8359375 -19.17578125 182.8359375 C-19.42328125 183.4134375 -19.67078125 183.9909375 -19.92578125 184.5859375 C-21.35878113 187.16533729 -22.96002801 188.89715342 -25.17578125 190.8359375 C-25.83578125 190.8359375 -26.49578125 190.8359375 -27.17578125 190.8359375 C-27.41296875 191.42503906 -27.65015625 192.01414062 -27.89453125 192.62109375 C-32.59600931 200.74834394 -45.59991027 205.94392355 -54.29296875 208.4453125 C-60.03060914 209.95433259 -65.44724964 210.37440259 -71.36328125 210.3359375 C-72.85613647 210.33062012 -72.85613647 210.33062012 -74.37915039 210.32519531 C-83.34014617 210.12598187 -90.94219152 208.26166368 -99.17578125 204.8359375 C-100.41714844 204.33513672 -100.41714844 204.33513672 -101.68359375 203.82421875 C-105.77413456 201.98114238 -109.03145451 199.51059055 -112.33984375 196.49609375 C-113.87243703 195.11023812 -115.47945663 193.80726974 -117.1015625 192.52734375 C-130.18201154 181.65610045 -135.66257276 164.25182251 -137.49609375 147.99609375 C-138.29639213 130.25614642 -129.97953745 113.10207643 -118.35546875 100.21875 C-103.3137156 84.03995209 -103.3137156 84.03995209 -95.17578125 77.8359375 C-91.31249498 79.4206733 -88.88701202 81.89550637 -85.97265625 84.84375 C-85.49000305 85.32923309 -85.00734985 85.81471619 -84.5100708 86.31491089 C-82.97719563 87.85893616 -81.45144121 89.40978574 -79.92578125 90.9609375 C-78.88457764 92.01217759 -77.84291584 93.06296407 -76.80078125 94.11328125 C-74.25378661 96.68226754 -71.71312948 99.25741911 -69.17578125 101.8359375 C-70.62448356 104.87276847 -72.03494081 106.89359154 -74.48828125 109.2109375 C-76.72952227 111.37824067 -78.69445723 113.47131558 -80.67578125 115.8984375 C-82.62598343 118.18992506 -84.31587092 119.84586259 -86.61328125 121.7109375 C-92.86355215 126.92404554 -97.58785167 133.03931928 -98.42578125 141.30078125 C-98.7329751 148.14544421 -97.52822571 153.82620429 -94.17578125 159.8359375 C-93.18172993 160.841851 -92.18297004 161.84317835 -91.17578125 162.8359375 C-91.17578125 163.4959375 -91.17578125 164.1559375 -91.17578125 164.8359375 C-90.34046875 165.238125 -90.34046875 165.238125 -89.48828125 165.6484375 C-87.17578125 166.8359375 -87.17578125 166.8359375 -84.92578125 168.3359375 C-77.81408428 172.21504494 -70.9970399 172.40931023 -63.17578125 170.8359375 C-57.66856492 168.95041598 -54.17213393 166.06736975 -50.17578125 161.8359375 C-49.51578125 161.8359375 -48.85578125 161.8359375 -48.17578125 161.8359375 C-47.94851852 161.283685 -47.7212558 160.7314325 -47.48710632 160.16244507 C-45.78816275 157.14823816 -43.64430993 155.05773516 -41.19458008 152.61181641 C-40.68859283 152.10393082 -40.18260559 151.59604523 -39.6612854 151.07276917 C-37.98997171 149.39775637 -36.31157299 147.73004668 -34.6328125 146.0625 C-33.46380227 144.89468289 -32.29516258 143.72649476 -31.12687683 142.55795288 C-28.67612598 140.10876577 -26.22205496 137.66297201 -23.76538086 135.21972656 C-20.63115854 132.10242791 -17.5034923 128.97865402 -14.3781023 125.85250282 C-11.96332499 123.43799888 -9.54593857 121.02612138 -7.12769127 118.61509323 C-5.97457753 117.46514205 -4.82205119 116.31460152 -3.67014503 115.1634407 C6.42927454 105.07769738 6.42927454 105.07769738 10.97827148 101.23925781 C15.93950405 97.04964013 18.61413847 91.19529557 19.82421875 84.8359375 C19.82421875 75.09752206 15.85640944 67.76519869 9.12890625 60.97705078 C7.65685411 59.53217427 6.1800241 58.0921543 4.69921875 56.65625 C3.08957053 55.07189212 1.48020417 53.48724784 -0.12890625 51.90234375 C-2.65304647 49.42780239 -5.18026106 46.9565758 -7.71289062 44.49072266 C-10.16778664 42.09648263 -12.60988697 39.68975163 -15.05078125 37.28125 C-15.80504395 36.55390656 -16.55930664 35.82656311 -17.33642578 35.07717896 C-22.6232536 29.8408445 -25.71375071 25.03927531 -28.17578125 17.9609375 C-28.17578125 12.54136588 -26.25620061 7.34759224 -22.78125 3.15234375 C-16.39079187 -2.52993697 -7.6712532 -4.10418933 0 0 Z " fill="#2784FE" transform="translate(236.17578125,449.1640625)"/>
<path d="M0 0 C13.53 0 27.06 0 41 0 C46.62358277 13.49659864 46.62358277 13.49659864 48.69140625 18.6796875 C49.38689575 20.42076782 49.38689575 20.42076782 50.09643555 22.19702148 C50.82213745 24.01762085 50.82213745 24.01762085 51.5625 25.875 C52.08430597 27.1824071 52.60619921 28.48977937 53.12817383 29.79711914 C53.93806253 31.82560428 54.74788264 33.85411651 55.55735779 35.88276672 C57.41153824 40.52904411 59.27066633 45.17331617 61.1328125 49.81640625 C63.62440325 56.02948502 66.10978321 62.245003 68.58935547 68.46289062 C69.52476894 70.80838568 70.46128063 73.15344307 71.39892578 75.49804688 C72.6880509 78.72573744 73.97016511 81.95611644 75.25 85.1875 C75.63309326 86.14390381 76.01618652 87.10030762 76.41088867 88.08569336 C76.75482666 88.95846924 77.09876465 89.83124512 77.453125 90.73046875 C77.75379883 91.48739014 78.05447266 92.24431152 78.36425781 93.02416992 C79 95 79 95 79 98 C79.66 98 80.32 98 81 98 C81.33773437 96.75089844 81.67546875 95.50179687 82.0234375 94.21484375 C84.65522877 85.46314205 88.23506108 77.04063213 91.625 68.5625 C92.37477734 66.67863724 93.12411903 64.79460103 93.87304688 62.91040039 C95.44013315 58.96859963 97.00912073 55.02756274 98.57910156 51.08691406 C101.01989402 44.95567303 103.44537346 38.81844575 105.8671875 32.6796875 C106.25838776 31.68833298 106.64958801 30.69697845 107.05264282 29.67558289 C108.57837121 25.808861 110.10389173 21.94205739 111.62872314 18.07498169 C112.67870385 15.41292794 113.72983909 12.75133288 114.78125 10.08984375 C115.09399872 9.29605316 115.40674744 8.50226257 115.72897339 7.68441772 C117.88603038 2.22793924 117.88603038 2.22793924 119 0 C132.2 0 145.4 0 159 0 C158.0783215 4.6083925 156.67573511 8.60384996 154.90234375 12.9140625 C154.58979141 13.68317963 154.27723907 14.45229675 153.95521545 15.24472046 C152.9534278 17.70651491 151.945438 20.16571831 150.9375 22.625 C150.28672977 24.22380387 149.63633593 25.822761 148.98632812 27.421875 C145.39561192 36.23861585 141.73610978 45.02449978 138.0307312 53.79359436 C134.1372333 63.02090434 130.3488282 72.29081826 126.5625 81.5625 C125.77750775 83.48266652 124.99251424 85.40283253 124.20751953 87.32299805 C118.548343 101.17359793 112.92866505 115.0399896 107.32452393 128.91293335 C101.40815001 143.55717264 95.42822759 158.1745705 89.41918945 172.78100586 C85.59033742 182.09266431 81.78963288 191.41387539 78.11694336 200.78857422 C76.10301755 205.89698245 76.10301755 205.89698245 75 207 C72.1883662 207.08861992 69.40141745 207.11522355 66.58984375 207.09765625 C65.74780899 207.0962413 64.90577423 207.09482635 64.03822327 207.09336853 C61.33794665 207.08775263 58.63775172 207.07519748 55.9375 207.0625 C54.11132932 207.05748705 52.28515734 207.05292379 50.45898438 207.04882812 C45.97262458 207.03777804 41.48632616 207.02050279 37 207 C37.73967859 202.04750177 39.17111388 197.87042064 41.1875 193.3125 C41.9009875 191.64952925 42.61166938 189.98535336 43.3203125 188.3203125 C43.73055664 187.35641602 44.14080078 186.39251953 44.56347656 185.39941406 C47.27965052 178.97181275 49.95520741 172.52848809 52.58853149 166.0664978 C53.23600508 164.48499057 53.88895624 162.90571443 54.54745483 161.32876587 C55.48447706 159.08272196 56.40233944 156.82968485 57.31640625 154.57421875 C57.6024472 153.89982758 57.88848816 153.2254364 58.18319702 152.53060913 C61.00068312 145.45855311 59.04490663 140.56252837 56.2265625 133.85546875 C55.9473999 133.17782974 55.6682373 132.50019073 55.38061523 131.80201721 C54.46866776 129.59437997 53.54720184 127.39087122 52.625 125.1875 C51.98203212 123.63909163 51.33929364 122.09058799 50.69677734 120.54199219 C46.69715862 110.92942836 42.5767619 101.37576341 38.33984375 91.86523438 C33.97165383 82.02725561 29.79455006 72.1108342 25.625 62.1875 C25.28188782 61.37108032 24.93877563 60.55466064 24.58526611 59.71350098 C20.70741206 50.48237804 16.84444713 41.24508827 13 32 C12.34 32 11.68 32 11 32 C10 29 10 29 10 25 C9.09105867 22.39150877 9.09105867 22.39150877 7.8125 19.6484375 C7.36132812 18.63265625 6.91015625 17.616875 6.4453125 16.5703125 C5.96835937 15.51585937 5.49140625 14.46140625 5 13.375 C4.0593165 11.28007241 3.12165561 9.1837841 2.1875 7.0859375 C1.76855469 6.1582959 1.34960938 5.2306543 0.91796875 4.27490234 C0 2 0 2 0 0 Z " fill="#0E0F0E" transform="translate(440,430)"/>
<path d="M0 0 C15.84586411 17.02399528 15.4087447 39.07815625 15.296875 60.84375 C15.29313712 62.99850329 15.29029382 65.1532583 15.28829956 67.30801392 C15.28072405 72.9336022 15.26112894 78.55908447 15.2388916 84.18463135 C15.21830096 89.94338549 15.20926978 95.70215703 15.19921875 101.4609375 C15.17787639 112.72660865 15.14381537 123.9922017 15.1015625 135.2578125 C12.40610599 136.60554075 10.29640825 136.38744589 7.28125 136.390625 C6.105625 136.39191406 4.93 136.39320313 3.71875 136.39453125 C1.86636719 136.38873047 1.86636719 136.38873047 -0.0234375 136.3828125 C-1.84101562 136.38861328 -1.84101562 136.38861328 -3.6953125 136.39453125 C-4.87867188 136.39324219 -6.06203125 136.39195312 -7.28125 136.390625 C-8.35777832 136.38949707 -9.43430664 136.38836914 -10.54345703 136.38720703 C-14.38381037 136.23909269 -18.09164693 135.77972375 -21.8984375 135.2578125 C-21.89621689 134.40020325 -21.89399628 133.54259399 -21.89170837 132.65899658 C-21.87147423 124.48305236 -21.85634748 116.30711684 -21.84662533 108.13115311 C-21.84145871 103.93019777 -21.83447773 99.72926352 -21.82299805 95.52832031 C-21.69652169 73.41623719 -21.69652169 73.41623719 -22.3046875 51.31640625 C-22.33896347 50.55720886 -22.37323944 49.79801147 -22.40855408 49.01580811 C-22.97067425 39.29360841 -25.92043501 32.13214994 -32.703125 25.13671875 C-39.14575313 19.62265446 -46.55707748 18.15192782 -54.8984375 18.2578125 C-61.4949398 18.88375797 -66.33534159 20.73830284 -71.8984375 24.2578125 C-72.8884375 24.5878125 -73.8784375 24.9178125 -74.8984375 25.2578125 C-75.99459295 27.07388533 -75.99459295 27.07388533 -76.8984375 29.2578125 C-77.300625 29.969375 -77.7028125 30.6809375 -78.1171875 31.4140625 C-84.88487667 43.79398172 -84.1750753 57.09742565 -84.09375 70.8046875 C-84.09001223 72.67083585 -84.08716888 74.53698618 -84.08517456 76.40313721 C-84.07759817 81.27581355 -84.05800233 86.14836754 -84.0357666 91.02099609 C-84.01517786 96.00877224 -84.00614519 100.99656846 -83.99609375 105.984375 C-83.97474984 115.74224077 -83.94068775 125.5000164 -83.8984375 135.2578125 C-89.14931594 135.42504276 -94.40033844 135.58564065 -99.65161133 135.73999023 C-101.43942782 135.79348652 -103.22719025 135.84882154 -105.01489258 135.90600586 C-107.57882016 135.98770485 -110.14286703 136.06287195 -112.70703125 136.13671875 C-113.91328407 136.17727135 -113.91328407 136.17727135 -115.14390564 136.21864319 C-117.06142172 136.27066877 -118.98025253 136.26968691 -120.8984375 136.2578125 C-121.8984375 135.2578125 -121.8984375 135.2578125 -122.02148533 132.82339382 C-122.02056354 131.73291272 -122.01964174 130.64243162 -122.01869202 129.51890564 C-122.02006668 128.27223618 -122.02144135 127.02556671 -122.02285767 125.74111938 C-122.01931806 124.34686256 -122.01568324 122.95260597 -122.01196289 121.55834961 C-122.01168103 120.10009259 -122.01183874 118.64183543 -122.0124054 117.18357849 C-122.0126934 113.21267765 -122.00679627 109.24180675 -121.99983144 105.27091289 C-121.99359831 101.12556149 -121.99299413 96.98020948 -121.99180603 92.83485413 C-121.98869259 84.97961923 -121.98047904 77.12439818 -121.97045654 69.26916939 C-121.95929579 60.32856851 -121.95378505 51.38796698 -121.94876111 42.44736087 C-121.93829643 24.05083689 -121.92069675 5.6543258 -121.8984375 -12.7421875 C-116.64738308 -12.76683678 -111.39636205 -12.78502318 -106.14526367 -12.79711914 C-104.35749729 -12.80215968 -102.56973505 -12.80899204 -100.78198242 -12.81762695 C-98.21792582 -12.8297048 -95.65392353 -12.83541844 -93.08984375 -12.83984375 C-92.2856752 -12.84500504 -91.48150665 -12.85016632 -90.65296936 -12.85548401 C-88.73442035 -12.85567965 -86.81598382 -12.80420733 -84.8984375 -12.7421875 C-84.4034375 -12.2471875 -84.4034375 -12.2471875 -83.8984375 -11.7421875 C-83.98781553 -10.21699474 -84.14380896 -8.69536821 -84.3359375 -7.1796875 C-84.43777344 -6.35339844 -84.53960938 -5.52710938 -84.64453125 -4.67578125 C-84.72832031 -4.03769531 -84.81210937 -3.39960938 -84.8984375 -2.7421875 C-84.2384375 -2.4121875 -83.5784375 -2.0821875 -82.8984375 -1.7421875 C-82.8984375 -0.4221875 -82.8984375 0.8978125 -82.8984375 2.2578125 C-82.52074219 1.83371094 -82.14304687 1.40960938 -81.75390625 0.97265625 C-72.33758528 -9.06112839 -59.95058645 -15.54715397 -46.1015625 -16.7109375 C-28.25833423 -16.96403294 -13.16372797 -12.23342917 0 0 Z " fill="#0F100F" transform="translate(733.8984375,442.7421875)"/>
<path d="M0 0 C0 0.66 0 1.32 0 2 C1.49660156 2.14308594 1.49660156 2.14308594 3.0234375 2.2890625 C17.97571597 4.45943341 31.73179105 16.32401772 40.875 27.6875 C44.20300375 32.38984604 46.76972723 37.26269526 49.125 42.5 C49.4329248 43.18280029 49.74084961 43.86560059 50.05810547 44.5690918 C51.57929655 48.18833771 52.19177107 50.27048163 51 54 C45.59269451 54.27334724 40.18945701 54.47212791 34.77685547 54.60424805 C32.93922865 54.65934131 31.10207924 54.73424833 29.26611328 54.82983398 C13.93741587 55.60749715 13.93741587 55.60749715 9.10107422 51.59472656 C6.9921875 48.62109375 6.9921875 48.62109375 5.42529297 45.63842773 C3.3248656 41.75022654 0.96184151 40.74321026 -3 39 C-3.66 38.67 -4.32 38.34 -5 38 C-14.08581772 33.54980357 -22.24718273 33.25874204 -32 36 C-41.74751106 39.44623542 -47.93185433 45.84854487 -52.875 54.8125 C-59.38658473 68.95382038 -58.12225499 86.59365784 -53 101 C-52.01 101.495 -52.01 101.495 -51 102 C-50.46375 103.03125 -49.9275 104.0625 -49.375 105.125 C-46.67108234 110.04491032 -42.22990718 115.00186896 -36.75 116.6953125 C-36.1725 116.79585937 -35.595 116.89640625 -35 117 C-35 117.66 -35 118.32 -35 119 C-26.71041207 120.59465841 -19.36078848 121.23154004 -11 120 C-9.80375 119.855625 -8.6075 119.71125 -7.375 119.5625 C-6.59125 119.376875 -5.8075 119.19125 -5 119 C-4.67 118.34 -4.34 117.68 -4 117 C-3.0925 116.566875 -2.185 116.13375 -1.25 115.6875 C4.41742804 112.74479698 9.31885757 107.56006633 12.0625 101.75 C13 100 13 100 16 99 C18.80724391 98.98367775 21.58308224 99.02561365 24.38671875 99.12109375 C25.61223198 99.15651024 25.61223198 99.15651024 26.86250305 99.19264221 C29.47101593 99.26919218 32.07922544 99.35325372 34.6875 99.4375 C36.45636538 99.49072937 38.22524555 99.54346972 39.99414062 99.59570312 C44.32961906 99.72479559 48.66484043 99.86062511 53 100 C49.70358546 112.86905337 44.88142023 123.00404861 36 133 C35.44570313 133.63679687 34.89140625 134.27359375 34.3203125 134.9296875 C21.52054238 148.70934432 2.35585272 155.21284517 -16.04296875 156.28125 C-30.75253326 156.79518359 -44.82926233 153.4771162 -58 147 C-58.33 146.34 -58.66 145.68 -59 145 C-60.32225584 144.31162386 -61.65773006 143.64848565 -63 143 C-78.87866443 132.31302126 -90.05651862 116.15969098 -94.04296875 97.453125 C-98.37222107 74.67112502 -96.01432535 50.73250069 -82.75 31.1875 C-70.15979486 14.02860838 -53.86414896 4.04826771 -33 0 C-21.94314072 -1.67232967 -11.10135282 -0.88431829 0 0 Z " fill="#0E0F0E" transform="translate(861,427)"/>
<path d="M0 0 C5.09031755 -0.04936158 10.18049643 -0.08570105 15.27099609 -0.10986328 C17.00344265 -0.11993376 18.73587216 -0.13359089 20.46826172 -0.15087891 C22.95544639 -0.17508162 25.44240675 -0.18647239 27.9296875 -0.1953125 C28.70682098 -0.20563507 29.48395447 -0.21595764 30.28463745 -0.22659302 C32.19125493 -0.22699271 34.09731036 -0.1223214 36 0 C38.49344703 2.49344703 38.22949465 3.93510358 38.2319895 7.33574688 C38.22227287 8.08476517 38.21255624 8.83378346 38.20254517 9.60549927 C38.20017046 10.39941728 38.19779576 11.19333528 38.1953491 12.01131141 C38.18488661 14.68622961 38.16000311 17.36082311 38.13525391 20.03564453 C38.12483359 21.94724077 38.11529729 23.858842 38.10658264 25.77044678 C38.0803454 30.97272622 38.04168072 36.17484911 38.00085878 41.3770318 C37.96032328 46.80891993 37.93111409 52.24086838 37.90072632 57.67282104 C37.84141808 67.96469656 37.7718581 78.25647648 37.69865549 88.54826152 C37.61583028 100.26266951 37.54437194 111.97713809 37.47388959 123.69162583 C37.32861443 147.79450635 37.16899573 171.89727495 37 196 C34.46021694 196.16546317 31.92033749 196.32909506 29.38037109 196.49169922 C28.66823959 196.53828171 27.95610809 196.5848642 27.22239685 196.63285828 C21.35336231 197.00634038 15.50626617 197.15149219 9.625 197.125 C8.25601562 197.13080078 8.25601562 197.13080078 6.859375 197.13671875 C5.55613281 197.13478516 5.55613281 197.13478516 4.2265625 197.1328125 C3.45908691 197.13168457 2.69161133 197.13055664 1.90087891 197.12939453 C0 197 0 197 -2 196 C-1.9278125 195.41992188 -1.855625 194.83984375 -1.78125 194.2421875 C-1.25315156 189.79735893 -0.89323018 185.48433265 -1 181 C-1 179.1665483 -0.98332198 177.33287902 -0.9375 175.5 C-0.8813693 172.86852656 -0.8813693 172.86852656 -2 170 C-1.53704883 165.2933298 -0.81531909 160.65896622 0 156 C-0.66 156 -1.32 156 -2 156 C-2 152.37 -2 148.74 -2 145 C-1.67 145 -1.34 145 -1 145 C-0.97685524 137.08113286 -0.959074 129.1622798 -0.94818783 121.24338722 C-0.94296368 117.56654289 -0.9358745 113.88972166 -0.92456055 110.21289062 C-0.91371507 106.6662104 -0.90771963 103.11955243 -0.90512276 99.5728569 C-0.90327151 98.21803817 -0.89965662 96.86322069 -0.89426994 95.50841141 C-0.88703762 93.61450635 -0.88659176 91.72057902 -0.88647461 89.82666016 C-0.884254 88.74744293 -0.88203339 87.66822571 -0.87974548 86.55630493 C-0.82676584 84.00922654 -0.82676584 84.00922654 -2 82 C-1.34 82 -0.68 82 0 82 C-0.165 80.783125 -0.33 79.56625 -0.5 78.3125 C-0.89813215 75.17720935 -1 72.16035554 -1 69 C-1.2475 68.0409375 -1.2475 68.0409375 -1.5 67.0625 C-2.81156389 61.65229897 -1.64732893 57.1479029 0 52 C-0.66 51.67 -1.32 51.34 -2 51 C-1.505 50.505 -1.505 50.505 -1 50 C-0.92394434 47.84629387 -0.91702135 45.69010757 -0.9375 43.53515625 C-0.94606035 42.17122456 -0.95451994 40.80729224 -0.96289062 39.44335938 C-0.96909424 38.72688232 -0.97529785 38.01040527 -0.98168945 37.2722168 C-1.0849703 24.80828383 -0.90457732 12.43698798 0 0 Z " fill="#0E0F0F" transform="translate(386,382)"/>
<path d="M0 0 C0.33 0 0.66 0 1 0 C1.86075498 9.0314983 2.12791659 17.99469481 2.07516479 27.06131363 C2.06217188 29.31471951 2.05583015 31.56806527 2.05102539 33.82150269 C2.03972949 38.58936275 2.02043029 43.35717151 2 48.125 C1.97634319 53.69033306 1.95602616 59.25563913 1.94406128 64.82101059 C1.93759274 67.03851845 1.92509785 69.25593982 1.91235352 71.47341919 C1.90872292 72.82619146 1.90537095 74.17896452 1.90234375 75.53173828 C1.89710693 76.71164337 1.89187012 77.89154846 1.88647461 79.10720825 C1.86808675 82.06889827 1.86808675 82.06889827 3 85 C2.94902854 86.85042378 2.82599013 88.69928619 2.66015625 90.54296875 C2.57644775 91.51000732 2.49273926 92.4770459 2.40649414 93.47338867 C2.29297607 94.69904541 2.17945801 95.92470215 2.0625 97.1875 C1.711875 101.085625 1.36125 104.98375 1 109 C11.56 109 22.12 109 33 109 C33.33 79.96 33.66 50.92 34 21 C34.66 20.67 35.32 20.34 36 20 C36.1721753 28.97906649 36.33861167 37.95823316 36.5 46.9375 C36.51187725 47.59813194 36.5237545 48.25876389 36.53599167 48.93941498 C36.90624785 69.63212584 37.10046551 90.30410405 37 111 C24.79 111.33 12.58 111.66 0 112 C0 75.04 0 38.08 0 0 Z " fill="#040403" transform="translate(613,467)"/>
<path d="M0 0 C12.21 0 24.42 0 37 0 C36 14 36 14 34 17 C34 12.05 34 7.1 34 2 C23.44 2 12.88 2 2 2 C2.020625 4.475 2.04125 6.95 2.0625 9.5 C2.09677507 18.03282067 1.64108049 26.49423569 1 35 C0.67 35 0.34 35 0 35 C0 23.45 0 11.9 0 0 Z " fill="#040404" transform="translate(613,431)"/>
<path d="M0 0 C0.99 0 1.98 0 3 0 C3 13.2 3 26.4 3 40 C2.01 40 1.02 40 0 40 C0.020625 39.05125 0.04125 38.1025 0.0625 37.125 C0.22551826 34.09333717 0.22551826 34.09333717 -1 32 C-0.34 32 0.32 32 1 32 C0.835 30.783125 0.67 29.56625 0.5 28.3125 C0.10186785 25.17720935 0 22.16035554 0 19 C-0.165 18.360625 -0.33 17.72125 -0.5 17.0625 C-1.81156389 11.65229897 -0.64732893 7.1479029 1 2 C0.34 1.67 -0.32 1.34 -1 1 C-0.67 0.67 -0.34 0.34 0 0 Z " fill="#121416" transform="translate(385,432)"/>
<path d="M0 0 C0.33 0 0.66 0 1 0 C1.02505615 1.20124512 1.0501123 2.40249023 1.07592773 3.64013672 C1.16993144 8.08686429 1.27016917 12.53343307 1.37231445 16.97998047 C1.41569001 18.90637504 1.45736314 20.83280871 1.49731445 22.75927734 C1.55495362 25.52453408 1.61866616 28.2895935 1.68359375 31.0546875 C1.70030624 31.9193161 1.71701874 32.7839447 1.73423767 33.67477417 C1.72159896 37.97395852 1.72159896 37.97395852 3 42 C3.08471364 43.81341842 3.10721083 45.62994161 3.09765625 47.4453125 C3.09443359 48.52167969 3.09121094 49.59804688 3.08789062 50.70703125 C3.07951172 51.83496094 3.07113281 52.96289062 3.0625 54.125 C3.05798828 55.26066406 3.05347656 56.39632812 3.04882812 57.56640625 C3.03701615 60.37765638 3.02054507 63.1888023 3 66 C2.01 66.495 2.01 66.495 1 67 C-0.10934326 52.64357238 -0.11698981 38.33000661 -0.0625 23.9375 C-0.05747163 21.60612076 -0.0529111 19.27474046 -0.04882812 16.94335938 C-0.03793615 11.29554939 -0.02130545 5.64777982 0 0 Z " fill="#1E1E1E" transform="translate(712,509)"/>
<path d="M0 0 C0.66 0 1.32 0 2 0 C2.33 0.66 2.66 1.32 3 2 C14.88 2.33 26.76 2.66 39 3 C36.11452832 5.88547168 33.09542322 5.41103215 29.21875 5.51953125 C28.0648175 5.55925301 28.0648175 5.55925301 26.88757324 5.59977722 C25.26032636 5.65247769 23.63290679 5.70005624 22.00537109 5.74291992 C19.50911881 5.81224675 17.01481384 5.90814511 14.51953125 6.00585938 C12.94015248 6.05370569 11.36072523 6.09998264 9.78125 6.14453125 C9.0322644 6.17561478 8.28327881 6.2066983 7.51159668 6.23872375 C5.40820312 6.28051758 5.40820312 6.28051758 2 6 C0 3 0 3 0 0 Z " fill="#060606" transform="translate(871,475)"/>
<path d="M0 0 C0.33 0.66 0.66 1.32 1 2 C-0.09655288 3.31886772 -1.20253423 4.62990057 -2.3125 5.9375 C-2.92738281 6.66839844 -3.54226562 7.39929688 -4.17578125 8.15234375 C-6 10 -6 10 -9 11 C-9.26554687 11.55171875 -9.53109375 12.1034375 -9.8046875 12.671875 C-11.5916538 16.15237146 -14.33590096 18.54502691 -17.125 21.25 C-17.68832031 21.80429687 -18.25164062 22.35859375 -18.83203125 22.9296875 C-20.21686028 24.29104485 -21.60783204 25.64614859 -23 27 C-23.99 26.67 -24.98 26.34 -26 26 C-25.15695313 25.16855469 -24.31390625 24.33710938 -23.4453125 23.48046875 C-22.33840925 22.38294603 -21.2316457 21.28528241 -20.125 20.1875 C-19.56941406 19.64029297 -19.01382813 19.09308594 -18.44140625 18.52929688 C-17.90644531 17.99755859 -17.37148437 17.46582031 -16.8203125 16.91796875 C-16.32805176 16.43094482 -15.83579102 15.9439209 -15.32861328 15.44213867 C-13.77411511 13.82996499 -13.77411511 13.82996499 -12 11 C-10.92505884 10.00899631 -9.81783405 9.05232505 -8.6875 8.125 C-5.6174689 5.55593632 -2.78723568 2.87169737 0 0 Z " fill="#3185F5" transform="translate(213,371)"/>
<path d="M0 0 C0.33 0.66 0.66 1.32 1 2 C-0.11799986 3.33920838 -1.24461897 4.67122556 -2.375 6 C-3.31472656 7.11375 -3.31472656 7.11375 -4.2734375 8.25 C-4.84320313 8.8275 -5.41296875 9.405 -6 10 C-6.66 10 -7.32 10 -8 10 C-8.309375 10.8353125 -8.309375 10.8353125 -8.625 11.6875 C-10.17120151 14.28792981 -12.07091888 15.78963573 -14.42578125 17.6484375 C-16.27244105 19.15832004 -16.27244105 19.15832004 -18.5 22 C-21.13063355 25.15676026 -23.78879332 27.46090635 -27 30 C-27.66 29.67 -28.32 29.34 -29 29 C-19.43 19.43 -9.86 9.86 0 0 Z " fill="#3185F4" transform="translate(186,398)"/>
<path d="M0 0 C9.24 0 18.48 0 28 0 C28 0.66 28 1.32 28 2 C24.08375299 2.19706355 20.16699634 2.38099159 16.25 2.5625 C15.13882813 2.61857422 14.02765625 2.67464844 12.8828125 2.73242188 C11.81289063 2.78076172 10.74296875 2.82910156 9.640625 2.87890625 C8.65610352 2.9260376 7.67158203 2.97316895 6.65722656 3.02172852 C4.2293192 3.00187518 2.30838443 2.71119313 0 2 C0 1.34 0 0.68 0 0 Z " fill="#050504" transform="translate(716,576)"/>
<path d="M0 0 C0.33 0 0.66 0 1 0 C1 1.98 1 3.96 1 6 C7.6 6 14.2 6 21 6 C17.92308234 8.05127844 17.06355001 8.27260872 13.55078125 8.4140625 C12.70322266 8.45273437 11.85566406 8.49140625 10.98242188 8.53125 C9.66081055 8.57765625 9.66081055 8.57765625 8.3125 8.625 C7.41982422 8.66367187 6.52714844 8.70234375 5.60742188 8.7421875 C3.40528622 8.83639651 1.20267153 8.91928494 -1 9 C-0.67 6.03 -0.34 3.06 0 0 Z " fill="#050504" transform="translate(387,570)"/>
<path d="M0 0 C0.66 0.33 1.32 0.66 2 1 C-2.62 5.62 -7.24 10.24 -12 15 C-12.99 14.67 -13.98 14.34 -15 14 C-13.625 12.5 -13.625 12.5 -12 11 C-11.34 11 -10.68 11 -10 11 C-9.75507813 10.41734375 -9.51015625 9.8346875 -9.2578125 9.234375 C-7.79564126 6.63697764 -6.15259586 5.16024169 -3.875 3.25 C-3.15054688 2.63640625 -2.42609375 2.0228125 -1.6796875 1.390625 C-0.84824219 0.70226562 -0.84824219 0.70226562 0 0 Z " fill="#3085F5" transform="translate(229,356)"/>
<path d="M0 0 C0.33 0 0.66 0 1 0 C1.33 2.97 1.66 5.94 2 9 C2.33 9 2.66 9 3 9 C3.02698189 10.62490954 3.04638757 12.24994633 3.0625 13.875 C3.07410156 14.77992188 3.08570313 15.68484375 3.09765625 16.6171875 C3 19 3 19 2 21 C1.34 20.67 0.68 20.34 0 20 C0 13.4 0 6.8 0 0 Z " fill="#1C1C1C" transform="translate(712,487)"/>
<path d="M0 0 C0.9384375 -0.00515625 1.876875 -0.0103125 2.84375 -0.015625 C5.54047676 0.25404768 7.18949293 0.8767741 9.5 2.25 C9.5 2.58 9.5 2.91 9.5 3.25 C3.08311325 3.35349817 -3.12694402 2.99507544 -9.5 2.25 C-6.2396882 0.31226752 -3.77138064 -0.02072187 0 0 Z " fill="#090908" transform="translate(682.5,457.75)"/>
<path d="M0 0 C0.99 0 1.98 0 3 0 C3.2361959 6.40353322 2.823321 11.84629161 1 18 C0.34 18 -0.32 18 -1 18 C-0.9278125 17.41992188 -0.855625 16.83984375 -0.78125 16.2421875 C-0.25315156 11.79735893 0.10676982 7.48433265 0 3 C0 2.01 0 1.02 0 0 Z " fill="#181A1C" transform="translate(385,560)"/>
<path d="M0 0 C0 0.33 0 0.66 0 1 C3.63 1.33 7.26 1.66 11 2 C11 2.33 11 2.66 11 3 C8.47909222 3.0272367 5.95848543 3.04695207 3.4375 3.0625 C2.38079102 3.07506836 2.38079102 3.07506836 1.30273438 3.08789062 C-3.24024798 3.10882603 -7.51784892 2.74800682 -12 2 C-12 1.67 -12 1.34 -12 1 C-7.93631321 0.22596442 -4.13574827 -0.0984702 0 0 Z " fill="#232423" transform="translate(838,580)"/>
<path d="M0 0 C0.33 0 0.66 0 1 0 C1 5.28 1 10.56 1 16 C0.34 16.33 -0.32 16.66 -1 17 C-1.82369618 11.41153825 -2.1568099 6.5526875 -1 1 C-0.67 0.67 -0.34 0.34 0 0 Z " fill="#060607" transform="translate(387,416)"/>
<path d="M0 0 C0.33 0.66 0.66 1.32 1 2 C-3.93654267 9.5273523 -3.93654267 9.5273523 -8.375 11.5 C-9.24125 11.665 -10.1075 11.83 -11 12 C-7.49102731 7.81576108 -3.91939465 3.80411834 0 0 Z " fill="#3387F7" transform="translate(133,534)"/>
<path d="M0 0 C0.33 0 0.66 0 1 0 C1.05399736 1.45792884 1.09279177 2.91642712 1.125 4.375 C1.14820313 5.18710937 1.17140625 5.99921875 1.1953125 6.8359375 C1 9 1 9 -1 11 C-1.66 11 -2.32 11 -3 11 C-2.69217504 9.35328588 -2.37860766 7.70764424 -2.0625 6.0625 C-1.88847656 5.14597656 -1.71445312 4.22945312 -1.53515625 3.28515625 C-1 1 -1 1 0 0 Z " fill="#181B1C" transform="translate(387,544)"/>
<path d="M0 0 C0.33 0.66 0.66 1.32 1 2 C4.0399648 2.69337792 4.0399648 2.69337792 7.5625 3.125 C9.35880859 3.37636719 9.35880859 3.37636719 11.19140625 3.6328125 C12.11824219 3.75398437 13.04507813 3.87515625 14 4 C14 4.33 14 4.66 14 5 C8.58264203 5.93402724 5.19548425 6.20808081 0 4 C0 2.68 0 1.36 0 0 Z " fill="#151514" transform="translate(825,544)"/>
<path d="M0 0 C0.66 0.33 1.32 0.66 2 1 C2 3.31 2 5.62 2 8 C1.67 8 1.34 8 1 8 C0.67 9.65 0.34 11.3 0 13 C-0.33 13 -0.66 13 -1 13 C-1.02696365 11.20841511 -1.04637917 9.41671527 -1.0625 7.625 C-1.07410156 6.62726562 -1.08570312 5.62953125 -1.09765625 4.6015625 C-1 2 -1 2 0 0 Z " fill="#3889F5" transform="translate(100,587)"/>
<path d="M0 0 C1.25541557 3.76624671 0.37061958 5.37188934 -1 9 C-1.33 8.34 -1.66 7.68 -2 7 C-2.66 7 -3.32 7 -4 7 C-3.6875 4.625 -3.6875 4.625 -3 2 C-2.01 1.34 -1.02 0.68 0 0 Z " fill="#151515" transform="translate(912,529)"/>
<path d="M0 0 C3 1 3 1 4.25 3.3125 C5.04631835 6.16597407 4.8214856 7.24802325 4 10 C3.32845067 8.71086513 2.66291141 7.41859796 2 6.125 C1.62875 5.40570313 1.2575 4.68640625 0.875 3.9453125 C0 2 0 2 0 0 Z " fill="#080908" transform="translate(504,494)"/>
<path d="M0 0 C8.03571429 0.80357143 8.03571429 0.80357143 12 3 C10.37581255 3.08090971 8.75048255 3.13914995 7.125 3.1875 C5.76761719 3.23970703 5.76761719 3.23970703 4.3828125 3.29296875 C3.20332031 3.14794922 3.20332031 3.14794922 2 3 C1.34 2.01 0.68 1.02 0 0 Z " fill="#080908" transform="translate(820,578)"/>
<path d="M0 0 C0.33 0.99 0.66 1.98 1 3 C-0.98 4.98 -2.96 6.96 -5 9 C-5.66 8.67 -6.32 8.34 -7 8 C-4.69 5.36 -2.38 2.72 0 0 Z " fill="#2F84F4" transform="translate(156,428)"/>
<path d="M0 0 C0.33 0 0.66 0 1 0 C1.33 3.63 1.66 7.26 2 11 C1.01 11 0.02 11 -1 11 C-0.67 7.37 -0.34 3.74 0 0 Z " fill="#171817" transform="translate(803,509)"/>
<path d="M0 0 C1.46726798 3.81489674 0.43336419 6.29011622 -1 10 C-1.33 10 -1.66 10 -2 10 C-2.1953125 3.9453125 -2.1953125 3.9453125 -2 2 C-1.34 1.34 -0.68 0.68 0 0 Z " fill="#080908" transform="translate(770,478)"/>
<path d="M0 0 C1 2 1 2 0.44140625 3.9453125 C0.15136719 4.66460937 -0.13867188 5.38390625 -0.4375 6.125 C-0.72496094 6.84945313 -1.01242187 7.57390625 -1.30859375 8.3203125 C-1.53675781 8.87460937 -1.76492188 9.42890625 -2 10 C-2.33 10 -2.66 10 -3 10 C-3.36629408 5.72656908 -2.40814077 3.51187196 0 0 Z " fill="#2D82F5" transform="translate(330,423)"/>
<path d="M0 0 C-2.91708924 1.98362069 -4.12380904 1.9876191 -7.75 1.625 C-8.8225 1.41875 -9.895 1.2125 -11 1 C-11 0.67 -11 0.34 -11 0 C-6.98195309 -0.84098656 -3.98196457 -1.05404945 0 0 Z " fill="#171716" transform="translate(855,548)"/>
<path d="M0 0 C0.556875 0.226875 1.11375 0.45375 1.6875 0.6875 C-0.61618736 1.75402192 -2.95268187 2.75171005 -5.3125 3.6875 C-5.9725 3.3575 -6.6325 3.0275 -7.3125 2.6875 C-2.88173077 -0.38942308 -2.88173077 -0.38942308 0 0 Z " fill="#070807" transform="translate(818.3125,430.3125)"/>
<path d="M0 0 C2.97 0 5.94 0 9 0 C9 0.66 9 1.32 9 2 C6.36 2.33 3.72 2.66 1 3 C0.67 2.01 0.34 1.02 0 0 Z " fill="#181917" transform="translate(852,427)"/>
<path d="M0 0 C0.99 1.485 0.99 1.485 2 3 C1.34 3 0.68 3 0 3 C0 2.01 0 1.02 0 0 Z " fill="#242322" transform="translate(707,477)"/>
<path d="M0 0 C0.99 0.33 1.98 0.66 3 1 C2.01 1.33 1.02 1.66 0 2 C0 1.34 0 0.68 0 0 Z " fill="#2B2B2A" transform="translate(792,440)"/>
<path d="M0 0 C0.33 0.66 0.66 1.32 1 2 C0.01 1.67 -0.98 1.34 -2 1 C-1.34 0.67 -0.68 0.34 0 0 Z " fill="#2C2C29" transform="translate(615,427)"/>
<path d="M0 0 C0.66 0.66 1.32 1.32 2 2 C1.34 2 0.68 2 0 2 C0 1.34 0 0.68 0 0 Z " fill="#343434" transform="translate(477,638)"/>
<path d="M0 0 C0.66 0.66 1.32 1.32 2 2 C1.34 2 0.68 2 0 2 C0 1.34 0 0.68 0 0 Z " fill="#4F90E3" transform="translate(100,614)"/>
<path d="" fill="#2A292A" transform="translate(0,0)"/>
<path d="M0 0 C0.66 0 1.32 0 2 0 C1.67 0.66 1.34 1.32 1 2 C0.67 1.34 0.34 0.68 0 0 Z " fill="#252525" transform="translate(483,537)"/>
<path d="" fill="#252523" transform="translate(0,0)"/>
<path d="M0 0 C0.66 0.66 1.32 1.32 2 2 C1.34 2 0.68 2 0 2 C0 1.34 0 0.68 0 0 Z " fill="#252423" transform="translate(519,522)"/>
<path d="M0 0 C3 1 3 1 3 1 Z " fill="#242423" transform="translate(464,496)"/>
<path d="M0 0 C3 1 3 1 3 1 Z " fill="#272724" transform="translate(834,462)"/>
<path d="M0 0 C2 1 2 1 2 1 Z " fill="#508FE3" transform="translate(129,651)"/>
<path d="" fill="#30302D" transform="translate(0,0)"/>
<path d="M0 0 C2 1 2 1 2 1 Z " fill="#2B2C29" transform="translate(813,579)"/>
<path d="M0 0 C2 1 2 1 2 1 Z " fill="#5391E7" transform="translate(99,576)"/>
<path d="" fill="#272726" transform="translate(0,0)"/>
<path d="" fill="#222221" transform="translate(0,0)"/>
<path d="" fill="#4590EE" transform="translate(0,0)"/>
<path d="" fill="#272625" transform="translate(0,0)"/>
<path d="" fill="#292B2B" transform="translate(0,0)"/>
<path d="" fill="#242322" transform="translate(0,0)"/>
<path d="" fill="#383D44" transform="translate(0,0)"/>
<path d="" fill="#373C44" transform="translate(0,0)"/>
<path d="" fill="#222221" transform="translate(0,0)"/>
<path d="" fill="#242325" transform="translate(0,0)"/>
<path d="" fill="#242223" transform="translate(0,0)"/>
<path d="M0 0 C2 1 2 1 2 1 Z " fill="#252522" transform="translate(468,502)"/>
<path d="" fill="#4A92EB" transform="translate(0,0)"/>
<path d="" fill="#212422" transform="translate(0,0)"/>
<path d="" fill="#232421" transform="translate(0,0)"/>
<path d="" fill="#232424" transform="translate(0,0)"/>
<path d="" fill="#5593E4" transform="translate(0,0)"/>
<path d="" fill="#252523" transform="translate(0,0)"/>
<path d="M0 0 C2 1 2 1 2 1 Z " fill="#282827" transform="translate(747,464)"/>
<path d="" fill="#282625" transform="translate(0,0)"/>
<path d="M0 0 C2 1 2 1 2 1 Z " fill="#282725" transform="translate(683,462)"/>
<path d="M0 0 C2 1 2 1 2 1 Z " fill="#272725" transform="translate(675,462)"/>
<path d="" fill="#2C2E2C" transform="translate(0,0)"/>
<path d="M0 0 C2 1 2 1 2 1 Z " fill="#2C2D2B" transform="translate(596,428)"/>
<path d="M0 0 C2 1 2 1 2 1 Z " fill="#31302F" transform="translate(470,428)"/>
<path d="" fill="#4A8EE2" transform="translate(0,0)"/>
<path d="M0 0 C2 1 2 1 2 1 Z " fill="#3E444A" transform="translate(400,381)"/>
<path d="" fill="#504D49" transform="translate(0,0)"/>
<path d="" fill="#4F90E6" transform="translate(0,0)"/>
<path d="" fill="#508FE4" transform="translate(0,0)"/>
<path d="" fill="#4F91E4" transform="translate(0,0)"/>
<path d="" fill="#5390E4" transform="translate(0,0)"/>
<path d="" fill="#4B8FEA" transform="translate(0,0)"/>
<path d="" fill="#5290E3" transform="translate(0,0)"/>
<path d="" fill="#323333" transform="translate(0,0)"/>
<path d="" fill="#343333" transform="translate(0,0)"/>
<path d="" fill="#4F8FE1" transform="translate(0,0)"/>
<path d="" fill="#4E8DE4" transform="translate(0,0)"/>
<path d="" fill="#363633" transform="translate(0,0)"/>
<path d="" fill="#2B2C2A" transform="translate(0,0)"/>
<path d="" fill="#4D8EE1" transform="translate(0,0)"/>
<path d="" fill="#508DDF" transform="translate(0,0)"/>
<path d="" fill="#508DE0" transform="translate(0,0)"/>
<path d="" fill="#4D8FE3" transform="translate(0,0)"/>
<path d="" fill="#3A91FA" transform="translate(0,0)"/>
<path d="" fill="#3C91FA" transform="translate(0,0)"/>
<path d="" fill="#3B92FB" transform="translate(0,0)"/>
<path d="" fill="#2A2928" transform="translate(0,0)"/>
<path d="" fill="#282725" transform="translate(0,0)"/>
<path d="" fill="#2C2D2B" transform="translate(0,0)"/>
<path d="" fill="#292927" transform="translate(0,0)"/>
<path d="" fill="#5290E2" transform="translate(0,0)"/>
<path d="" fill="#272827" transform="translate(0,0)"/>
<path d="" fill="#5391E3" transform="translate(0,0)"/>
<path d="" fill="#5293E5" transform="translate(0,0)"/>
<path d="" fill="#282928" transform="translate(0,0)"/>
<path d="" fill="#252728" transform="translate(0,0)"/>
<path d="" fill="#2B2B28" transform="translate(0,0)"/>
<path d="" fill="#2A2827" transform="translate(0,0)"/>
<path d="" fill="#2A2A28" transform="translate(0,0)"/>
<path d="" fill="#2B2B2A" transform="translate(0,0)"/>
<path d="" fill="#31302E" transform="translate(0,0)"/>
<path d="" fill="#262625" transform="translate(0,0)"/>
<path d="" fill="#272828" transform="translate(0,0)"/>
<path d="" fill="#2F2F2D" transform="translate(0,0)"/>
<path d="" fill="#30312E" transform="translate(0,0)"/>
<path d="" fill="#31302E" transform="translate(0,0)"/>
<path d="" fill="#2D302C" transform="translate(0,0)"/>
<path d="" fill="#343434" transform="translate(0,0)"/>
<path d="" fill="#353534" transform="translate(0,0)"/>
<path d="" fill="#3D8EFA" transform="translate(0,0)"/>
<path d="" fill="#32332F" transform="translate(0,0)"/>
<path d="" fill="#2B2B29" transform="translate(0,0)"/>
<path d="" fill="#2D2D29" transform="translate(0,0)"/>
<path d="" fill="#2C2D2C" transform="translate(0,0)"/>
<path d="" fill="#292727" transform="translate(0,0)"/>
<path d="" fill="#2D2B2C" transform="translate(0,0)"/>
<path d="" fill="#2D2B29" transform="translate(0,0)"/>
<path d="" fill="#222423" transform="translate(0,0)"/>
<path d="" fill="#252724" transform="translate(0,0)"/>
<path d="" fill="#3A4047" transform="translate(0,0)"/>
<path d="" fill="#232322" transform="translate(0,0)"/>
<path d="" fill="#4890EA" transform="translate(0,0)"/>
<path d="" fill="#262625" transform="translate(0,0)"/>
<path d="" fill="#4790EC" transform="translate(0,0)"/>
<path d="" fill="#2A2A27" transform="translate(0,0)"/>
<path d="" fill="#2B2A28" transform="translate(0,0)"/>
<path d="" fill="#478EE8" transform="translate(0,0)"/>
<path d="" fill="#292728" transform="translate(0,0)"/>
<path d="" fill="#2A2A29" transform="translate(0,0)"/>
<path d="" fill="#292A29" transform="translate(0,0)"/>
<path d="" fill="#252624" transform="translate(0,0)"/>
<path d="" fill="#242624" transform="translate(0,0)"/>
<path d="" fill="#282526" transform="translate(0,0)"/>
<path d="" fill="#272725" transform="translate(0,0)"/>
<path d="" fill="#252526" transform="translate(0,0)"/>
<path d="" fill="#2B2828" transform="translate(0,0)"/>
<path d="" fill="#272625" transform="translate(0,0)"/>
<path d="" fill="#478EE9" transform="translate(0,0)"/>
<path d="" fill="#272625" transform="translate(0,0)"/>
<path d="" fill="#373C41" transform="translate(0,0)"/>
<path d="" fill="#252725" transform="translate(0,0)"/>
<path d="" fill="#282926" transform="translate(0,0)"/>
<path d="" fill="#282826" transform="translate(0,0)"/>
<path d="" fill="#3E92FD" transform="translate(0,0)"/>
<path d="" fill="#262724" transform="translate(0,0)"/>
<path d="" fill="#242525" transform="translate(0,0)"/>
<path d="" fill="#2C2E2D" transform="translate(0,0)"/>
<path d="" fill="#242623" transform="translate(0,0)"/>
<path d="" fill="#282627" transform="translate(0,0)"/>
<path d="" fill="#262625" transform="translate(0,0)"/>
<path d="" fill="#242423" transform="translate(0,0)"/>
<path d="" fill="#282727" transform="translate(0,0)"/>
<path d="" fill="#292624" transform="translate(0,0)"/>
<path d="" fill="#272627" transform="translate(0,0)"/>
<path d="" fill="#4490EF" transform="translate(0,0)"/>
<path d="" fill="#252624" transform="translate(0,0)"/>
<path d="" fill="#252625" transform="translate(0,0)"/>
<path d="" fill="#383E46" transform="translate(0,0)"/>
<path d="" fill="#252222" transform="translate(0,0)"/>
<path d="" fill="#262624" transform="translate(0,0)"/>
<path d="" fill="#242323" transform="translate(0,0)"/>
<path d="" fill="#252322" transform="translate(0,0)"/>
<path d="" fill="#252521" transform="translate(0,0)"/>
<path d="" fill="#388BFA" transform="translate(0,0)"/>
<path d="" fill="#242221" transform="translate(0,0)"/>
<path d="" fill="#398EFA" transform="translate(0,0)"/>
<path d="" fill="#232020" transform="translate(0,0)"/>
<path d="" fill="#272524" transform="translate(0,0)"/>
<path d="" fill="#4892EF" transform="translate(0,0)"/>
<path d="" fill="#252625" transform="translate(0,0)"/>
<path d="" fill="#222323" transform="translate(0,0)"/>
<path d="" fill="#262524" transform="translate(0,0)"/>
<path d="" fill="#393F45" transform="translate(0,0)"/>
<path d="" fill="#232522" transform="translate(0,0)"/>
<path d="" fill="#242321" transform="translate(0,0)"/>
<path d="" fill="#388CF8" transform="translate(0,0)"/>
<path d="" fill="#252421" transform="translate(0,0)"/>
<path d="" fill="#252323" transform="translate(0,0)"/>
<path d="" fill="#232321" transform="translate(0,0)"/>
<path d="" fill="#242324" transform="translate(0,0)"/>
<path d="" fill="#242422" transform="translate(0,0)"/>
<path d="" fill="#242624" transform="translate(0,0)"/>
<path d="" fill="#398DFA" transform="translate(0,0)"/>
<path d="" fill="#272425" transform="translate(0,0)"/>
<path d="" fill="#272828" transform="translate(0,0)"/>
<path d="" fill="#363F47" transform="translate(0,0)"/>
<path d="" fill="#272523" transform="translate(0,0)"/>
<path d="" fill="#252423" transform="translate(0,0)"/>
<path d="" fill="#3B8DF9" transform="translate(0,0)"/>
<path d="" fill="#272925" transform="translate(0,0)"/>
<path d="" fill="#252625" transform="translate(0,0)"/>
<path d="" fill="#4395F5" transform="translate(0,0)"/>
<path d="" fill="#272724" transform="translate(0,0)"/>
<path d="" fill="#282725" transform="translate(0,0)"/>
<path d="" fill="#252524" transform="translate(0,0)"/>
<path d="" fill="#272725" transform="translate(0,0)"/>
<path d="" fill="#262825" transform="translate(0,0)"/>
<path d="" fill="#262623" transform="translate(0,0)"/>
<path d="" fill="#272725" transform="translate(0,0)"/>
<path d="" fill="#242524" transform="translate(0,0)"/>
<path d="" fill="#3B91F7" transform="translate(0,0)"/>
<path d="" fill="#262724" transform="translate(0,0)"/>
<path d="" fill="#242524" transform="translate(0,0)"/>
<path d="" fill="#3A91FC" transform="translate(0,0)"/>
<path d="" fill="#272726" transform="translate(0,0)"/>
<path d="" fill="#262525" transform="translate(0,0)"/>
<path d="" fill="#252523" transform="translate(0,0)"/>
<path d="" fill="#262725" transform="translate(0,0)"/>
<path d="" fill="#262624" transform="translate(0,0)"/>
<path d="" fill="#262625" transform="translate(0,0)"/>
<path d="" fill="#2B2826" transform="translate(0,0)"/>
<path d="" fill="#262524" transform="translate(0,0)"/>
<path d="" fill="#2D2B28" transform="translate(0,0)"/>
<path d="" fill="#262827" transform="translate(0,0)"/>
<path d="" fill="#3F92FB" transform="translate(0,0)"/>
<path d="" fill="#292B2A" transform="translate(0,0)"/>
<path d="" fill="#272625" transform="translate(0,0)"/>
<path d="" fill="#232320" transform="translate(0,0)"/>
<path d="" fill="#292A28" transform="translate(0,0)"/>
<path d="" fill="#312E2C" transform="translate(0,0)"/>
<path d="" fill="#2A2A2A" transform="translate(0,0)"/>
<path d="" fill="#292A28" transform="translate(0,0)"/>
<path d="" fill="#3C90FB" transform="translate(0,0)"/>
<path d="" fill="#232422" transform="translate(0,0)"/>
<path d="" fill="#4C8DE1" transform="translate(0,0)"/>
<path d="" fill="#252524" transform="translate(0,0)"/>
<path d="" fill="#2F302D" transform="translate(0,0)"/>
<path d="" fill="#262828" transform="translate(0,0)"/>
<path d="" fill="#262725" transform="translate(0,0)"/>
<path d="" fill="#262524" transform="translate(0,0)"/>
<path d="" fill="#2D2C2A" transform="translate(0,0)"/>
<path d="" fill="#262626" transform="translate(0,0)"/>
<path d="" fill="#2D2D2A" transform="translate(0,0)"/>
<path d="" fill="#2D2C2C" transform="translate(0,0)"/>
<path d="" fill="#2C2D29" transform="translate(0,0)"/>
<path d="" fill="#2E302C" transform="translate(0,0)"/>
<path d="" fill="#2F2F2D" transform="translate(0,0)"/>
<path d="" fill="#2F2F2D" transform="translate(0,0)"/>
<path d="" fill="#2D302E" transform="translate(0,0)"/>
<path d="" fill="#31302F" transform="translate(0,0)"/>
<path d="" fill="#2F302C" transform="translate(0,0)"/>
<path d="" fill="#2D312C" transform="translate(0,0)"/>
<path d="" fill="#2F2D2B" transform="translate(0,0)"/>
<path d="" fill="#2C2D2C" transform="translate(0,0)"/>
<path d="" fill="#312F2F" transform="translate(0,0)"/>
<path d="" fill="#2E2E2C" transform="translate(0,0)"/>
<path d="" fill="#2F2F2C" transform="translate(0,0)"/>
<path d="" fill="#2D302D" transform="translate(0,0)"/>
<path d="" fill="#2B2E2B" transform="translate(0,0)"/>
<path d="" fill="#2F2F2D" transform="translate(0,0)"/>
<path d="" fill="#4A91EC" transform="translate(0,0)"/>
<path d="" fill="#4B94EF" transform="translate(0,0)"/>
<path d="" fill="#3D92FE" transform="translate(0,0)"/>
<path d="" fill="#4A94ED" transform="translate(0,0)"/>
<path d="" fill="#4E92EB" transform="translate(0,0)"/>
<path d="" fill="#4990EE" transform="translate(0,0)"/>
<path d="" fill="#3E91FA" transform="translate(0,0)"/>
<path d="" fill="#4B91ED" transform="translate(0,0)"/>
<path d="" fill="#4C91ED" transform="translate(0,0)"/>
<path d="" fill="#3B91FC" transform="translate(0,0)"/>
<path d="" fill="#498DE5" transform="translate(0,0)"/>
<path d="" fill="#498EED" transform="translate(0,0)"/>
<path d="" fill="#3E91FE" transform="translate(0,0)"/>
<path d="" fill="#3C90FB" transform="translate(0,0)"/>
<path d="" fill="#4D5A6C" transform="translate(0,0)"/>
<path d="" fill="#3C3F41" transform="translate(0,0)"/>
<path d="" fill="#3C4145" transform="translate(0,0)"/>
<path d="" fill="#485265" transform="translate(0,0)"/>
<path d="" fill="#4892F0" transform="translate(0,0)"/>
<path d="" fill="#434E58" transform="translate(0,0)"/>
<path d="" fill="#4C5766" transform="translate(0,0)"/>
<path d="" fill="#4D8EE5" transform="translate(0,0)"/>
<path d="" fill="#4990EF" transform="translate(0,0)"/>
<path d="" fill="#3F4449" transform="translate(0,0)"/>
<path d="" fill="#4E93EE" transform="translate(0,0)"/>
<path d="" fill="#4990ED" transform="translate(0,0)"/>
<path d="" fill="#5192EB" transform="translate(0,0)"/>
<path d="" fill="#4C91E6" transform="translate(0,0)"/>
<path d="" fill="#4E93EB" transform="translate(0,0)"/>
<path d="" fill="#518FE7" transform="translate(0,0)"/>
<path d="" fill="#4F91E8" transform="translate(0,0)"/>
</svg>
